<svg id="Layer_1" xmlns="http://www.w3.org/2000/svg" width="446.6" height="151.4" viewBox="0 0 446.6 151.4"><style>.st0{fill:#fff}</style><path class="st0" d="M21.2 36.5h-1.4v87.2H55c20.3 0 32-9.1 32-24.9 0-12.3-5.6-19.7-15.8-22.1 5.1-3.6 7.8-9.1 7.8-16.9 0-15.5-8.9-23.3-26.5-23.3H21.2zM44.7 56c7.4 0 11.4 1.1 11.4 6.8 0 4.8-3.1 6.8-10.5 6.8h-1.1V56h.2zm.7 32.8h1.8c4.6 0 10.3-.1 13 2.6 1.2 1.2 1.8 2.9 1.8 5.2 0 2-.6 3.5-1.7 4.7-3 3-9.2 2.9-13.8 2.9h-2.1V88.8h1zM139.8 36.5H90.4v87.2h50.8v-21.3h-26.1V90.6h24.8V69.2h-24.8V57.8h26.1V36.5h-1.4zM169.3 36.5H146v87.2h51v-21.3h-26.3V36.5h-1.4zM332.4 36.5H283v87.2h50.8v-21.3h-26.1V90.6h24.8V69.2h-24.8V57.8h26.1V36.5h-1.4zM424.6 36.5h-23.3v49.3c-4-5.1-38.4-49.3-38.4-49.3h-24v87.2h24.7V74.2c4 5.1 38.4 49.5 38.4 49.5h24V36.5h-1.4zM233.8 36.5h-32.5v87.2h32.5c24.4 0 44.3-19.6 44.3-43.6s-19.9-43.6-44.3-43.6zM226 57.9c13.6.3 22 8.7 22 22.2 0 13.6-8.2 21.9-22 22.2V57.9zm5.5 47.8c12.5-3 20.7-10.7 20.8-25.7-.2-15-8.3-22.7-20.8-25.7 14 2.1 25 9.5 25 25.6v.1c0 16.2-11 23.6-25 25.7zM260.2 80c-.2-18-10-29.8-24.9-33.3 16.7 2.5 29.6 14 29.6 33.3v.1c0 19.3-13 30.7-29.7 33.2 14.9-3.6 24.8-15.3 25-33.3zm-19.9 40.1c16.7-4.7 28.3-19.2 28.5-39.9v-.3c-.2-20.7-11.9-35.1-28.5-39.8 19 3.9 33.5 17.7 33.6 39.7v.4c0 22.1-14.5 36-33.6 39.9z"/></svg>